<?xml version="1.0" encoding="utf-8"?>
<svg viewBox="-125.474 33.214 890.263 431.727" width="890.263" height="431.727" xmlns="http://www.w3.org/2000/svg">
  <rect x="60.808" y="34.913" width="703.576" height="387.54" fill="#e6e6e6" style=""/>
  <rect x="123.023" y="86.954" width="254" height="224.473" fill="#fff" style=""/>
  <rect x="472.023" y="91.307" width="254" height="272.636" fill="#fff" style=""/>
  <ellipse cx="267.735" cy="445.165" rx="45.5" ry="5.59" fill="#e6e6e6" style=""/>
  <ellipse cx="-17.739" cy="439.575" rx="104.425" ry="4.3" fill="#e6e6e6" style=""/>
  <rect x="60.508" width="703.576" height="25.707" fill="#6615bf" y="34.57" style=""/>
  <circle cx="-123.781" cy="-152.369" r="5.54" fill="#e6e6e6" style="" transform="matrix(1, 0, 0, 0.860051, 206.500855, 178.75853)"/>
  <circle cx="-102.753" cy="-152.369" r="5.54" fill="#e6e6e6" style="" transform="matrix(1, 0, 0, 0.860051, 206.500855, 178.75853)"/>
  <circle cx="-81.725" cy="-152.369" r="5.54" fill="#e6e6e6" style="" transform="matrix(1, 0, 0, 0.860051, 206.500855, 178.75853)"/>
  <path d="M 670.023 164.437 L 668.484 164.437 L 668.484 128.186 C 668.484 116.597 657.562 107.204 644.088 107.204 L 554.787 107.204 C 541.313 107.204 530.391 116.597 530.391 128.186 L 530.391 327.065 C 530.391 338.652 541.313 348.046 554.787 348.046 L 644.088 348.046 C 657.562 348.046 668.484 338.652 668.484 327.065 L 668.484 190.242 L 670.023 190.242 Z" fill="#3f3d56" style=""/>
  <path d="M 644.073 112.663 L 632.416 112.663 C 634.738 117.559 630.55 122.918 624.402 122.918 L 573.242 122.918 C 567.094 122.918 562.906 117.559 565.228 112.663 L 554.341 112.663 C 544.279 112.663 536.123 119.677 536.123 128.331 L 536.123 326.919 C 536.123 335.572 544.279 342.588 554.341 342.588 L 644.073 342.588 C 654.134 342.588 662.291 335.572 662.291 326.919 L 662.291 128.331 C 662.291 119.677 654.134 112.663 644.073 112.663 Z" fill="#fff" style=""/>
  <rect x="161.926" y="228.749" width="176.544" height="6.926" fill="#e6e6e6" style=""/>
  <rect x="161.926" y="251.11" width="176.544" height="6.926" fill="#6615bf" style=""/>
  <rect x="161.926" y="273.472" width="176.544" height="6.926" fill="#e6e6e6" style=""/>
  <rect x="548.675" y="243.86" width="103.064" height="6.926" fill="#e6e6e6" style=""/>
  <rect x="548.675" y="265.361" width="103.064" height="6.926" fill="#e6e6e6" style=""/>
  <rect x="548.675" y="286.863" width="103.064" height="6.926" fill="#e6e6e6" style=""/>
  <rect x="793.269" y="606.563" width="14.773" height="17.177" transform="matrix(0, 1, -1, 0, 1269.077764, -413.63437)" fill="#3f3d56" style=""/>
  <rect x="769.467" y="606.563" width="14.773" height="17.177" transform="matrix(0, 1, -1, 0, 1241.403203, -389.832857)" fill="#6615bf" style=""/>
  <rect x="745.666" y="606.563" width="14.773" height="17.177" transform="matrix(0, 1, -1, 0, 1213.728642, -366.031343)" fill="#3f3d56" style=""/>
  <rect x="721.864" y="606.563" width="14.773" height="17.177" transform="matrix(0, 1, -1, 0, 1186.054204, -342.22986)" fill="#3f3d56" style=""/>
  <rect x="698.063" y="606.563" width="14.773" height="17.177" transform="matrix(0, 1, -1, 0, 1158.379643, -318.428315)" fill="#3f3d56" style=""/>
  <path d="M 227.441 271.594 L 226.7 272.87 L 224.476 263.308 C 224.476 263.308 221.512 253.109 227.441 253.109 C 233.37 253.109 231.888 263.308 231.888 263.308 L 231.888 270.319 Z" style="fill: rgb(255, 184, 184);"/>
  <path d="M 324.682 270.289 L 325.423 271.564 L 327.647 262.003 C 327.647 262.003 330.611 251.804 324.682 251.804 C 318.753 251.804 320.235 262.003 320.235 262.003 L 320.235 269.014 Z" style="fill: rgb(255, 184, 184);"/>
  <polygon points="260.051 343.277 251.158 390.445 255.604 436.339 265.98 432.515 264.498 398.094 274.874 370.685 277.097 403.193 272.651 436.976 285.991 438.251 295.626 368.773 294.885 345.189 260.051 343.277" fill="#2f2e41" style=""/>
  <path d="M 260.051 430.603 L 254.863 437.614 L 254.863 453.281 C 254.863 454.213 255.649 455.008 256.719 455.157 C 259.262 455.515 263.69 455.77 265.239 453.549 C 267.462 450.363 265.98 443.351 265.98 443.351 C 265.98 443.351 268.944 438.251 267.462 434.427 C 265.98 430.603 264.498 429.965 264.498 429.965 Z" fill="#2f2e41" style=""/>
  <path d="M 282.285 436.977 L 283.767 438.889 C 283.767 438.889 285.991 440.801 284.508 442.076 C 283.42 443.067 282.429 444.132 281.544 445.263 C 281.544 445.263 273.391 447.175 273.391 444.626 L 273.391 436.339 Z" fill="#2f2e41" style=""/>
  <circle cx="73.113" cy="121.145" r="9.824" style="fill: rgb(255, 184, 184);" transform="matrix(1, 0, 0, 0.860051, 206.500855, 178.75853)"/>
  <polygon points="273.021 285.591 272.28 297.702 285.62 298.339 284.879 286.228 273.021 285.591" style="fill: rgb(255, 184, 184);"/>
  <path d="M 287.473 298.658 L 285.369 294.238 C 285.369 294.238 275.615 291.009 272.65 294.196 L 271.168 298.021 L 259.31 295.471 L 252.639 308.219 L 258.569 344.551 C 258.569 344.551 274.132 361.762 294.884 345.19 L 300.813 310.769 L 296.366 297.383 Z" fill="#575a89" style=""/>
  <polygon points="294.885 299.933 296.367 297.383 311.19 289.733 320.236 266.704 327.236 269.284 319.342 296.745 297.849 313.955 294.885 299.933" fill="#575a89" style=""/>
  <polygon points="260.792 296.745 259.31 295.471 243.746 287.184 232.629 268.062 223.736 270.611 233.37 294.195 257.087 310.769 260.792 296.745" fill="#575a89" style=""/>
  <path d="M 286.905 270.01 L 288.512 269.319 L 286.102 268.629 L 286.102 267.937 C 286.102 267.937 274.055 263.793 272.449 270.7 C 268.192 275.62 268.192 282.358 272.449 287.278 L 272.449 289.351 L 285.299 290.732 L 286.905 286.587 C 286.905 286.587 294.937 274.154 286.905 270.01 Z" fill="#2f2e41" style=""/>
  <path d="M -7.075 344.025 L -9.93 345.253 C -9.93 345.253 -21.352 349.756 -18.02 352.211 C -14.689 354.667 -5.647 349.756 -5.647 349.756 L -3.743 347.709 Z" fill="#ffb8b8" style=""/>
  <polygon points="76.469 343.414 67.643 394.369 54.317 429.978 47.179 427.113 53.841 378.406 34.805 364.49 36.233 344.025 76.469 343.414" fill="#2f2e41" style=""/>
  <path d="M 46.227 428.341 C 46.227 428.341 54.317 424.657 54.793 429.979 L 53.841 435.3 C 53.841 435.3 56.696 444.713 47.178 442.667 C 37.66 440.62 44.323 434.481 44.323 434.481 Z" fill="#2f2e41" style=""/>
  <path d="M 40.992 359.988 L 34.805 364.49 C 34.805 364.49 34.805 392.323 39.088 396.416 C 43.371 400.509 70.498 421.383 71.449 422.202 C 72.401 423.02 76.684 414.016 76.684 414.016 L 50.986 388.23 L 52.889 372.267 Z" fill="#2f2e41" style=""/>
  <path d="M 73.829 412.788 C 73.829 412.788 81.443 411.56 81.443 416.062 C 81.538 419.622 81.856 423.174 82.395 426.704 C 82.395 426.704 84.299 441.029 78.112 438.983 C 71.925 436.936 69.546 422.611 69.546 422.611 C 70.121 421.42 71.121 420.417 72.401 419.746 C 74.305 418.927 73.829 412.788 73.829 412.788 Z" fill="#2f2e41" style=""/>
  <polygon points="50.034 282.629 51.462 297.774 47.655 303.504 37.185 294.908 36.233 283.448 50.034 282.629" fill="#ffb8b8" style=""/>
  <circle cx="-165.034" cy="115.063" r="11.422" fill="#ffb8b8" style="" transform="matrix(1, 0, 0, 0.860051, 206.500855, 178.75853)"/>
  <polygon points="46.227 297.365 50.986 285.495 59.552 293.681 75.257 345.662 63.359 351.802 58.125 345.252 57.173 353.848 33.853 349.755 31.95 294.908 36.706 289.147 46.227 297.365" fill="#d0cde1" style=""/>
  <polygon points="39.564 355.485 36.709 289.179 30.522 293.272 19.1 299.82 26.715 323.151 29.094 347.709 39.564 355.485" fill="#2f2e41" style=""/>
  <polygon points="22.432 300.229 19.1 299.82 9.582 323.969 -9.454 344.434 -2.315 350.983 19.576 332.564 27.667 317.42 22.432 300.229" fill="#2f2e41" style=""/>
  <path d="M 74.404 344.4 L 73.755 347.088 C 73.755 347.088 70.784 357.587 75.089 356.861 C 79.395 356.135 80.517 346.988 80.517 346.988 L 79.83 344.434 Z" fill="#ffb8b8" style=""/>
  <polygon points="50.242 284.83 73.829 292.862 70.974 317.42 76.685 344.434 70.974 349.755 49.858 288.309 50.242 284.83" fill="#2f2e41" style=""/>
  <path d="M 42.065 261.22 L 45.418 259.779 L 45.418 261.22 L 47.653 260.259 L 47.653 262.662 C 47.653 262.662 56.035 267.948 54.358 274.196 C 52.682 280.443 52.682 280.923 52.682 280.923 C 52.682 280.923 50.563 269.042 42.181 270.965 C 33.8 272.887 33.125 273.234 30.89 278.521 L 30.284 280.788 C 30.284 280.788 20.832 262.181 42.065 261.22 Z" fill="#2f2e41" style=""/>
  <polygon points="70.498 292.862 74.305 292.862 80.492 321.513 80.492 346.48 72.878 345.252 66.691 307.597 70.498 292.862" fill="#2f2e41" style=""/>
  <rect x="-118.629" y="353.453" width="140.321" height="83.864" fill="#6615bf" style=""/>
  <path d="M -48.469 369.817 C -71.354 369.817 -85.658 391.124 -74.215 408.169 C -62.772 425.215 -34.166 425.215 -22.723 408.169 C -20.114 404.283 -18.74 399.873 -18.74 395.386 C -18.788 381.282 -32.07 369.858 -48.469 369.817 Z M -48.469 377.487 C -41.603 377.487 -37.312 383.88 -40.745 388.993 C -44.178 394.107 -52.76 394.107 -56.193 388.993 C -56.976 387.827 -57.388 386.505 -57.388 385.158 C -57.371 380.927 -53.388 377.502 -48.469 377.487 Z M -48.469 414.414 C -55.622 414.386 -62.297 411.322 -66.306 406.227 C -66.163 401.113 -54.415 398.299 -48.469 398.299 C -42.523 398.299 -30.774 401.113 -30.632 406.227 C -34.645 411.318 -41.318 414.381 -48.469 414.414 Z" fill="#fff" style=""/>
  <rect x="471.727" y="235.256" width="1.794" height="194.615" transform="matrix(0.555032, -0.831829, 0.90435, 0.446344, -313.053041, 400.892824)" fill="#fff" style=""/>
  <rect x="411.628" y="307.444" width="196.271" height="1.778" transform="matrix(0.896759, -0.442518, 0.55968, 0.838944, -379.681459, 123.092812)" fill="#fff" style=""/>
  <rect x="816.574" y="306.572" width="1.865" height="74.335" transform="matrix(0.758166, -0.652062, 0.766799, 0.659486, -283.861451, 484.921327)" fill="#fff" style=""/>
  <rect x="779.915" y="342.818" width="75.181" height="1.844" transform="matrix(0.758166, -0.652062, 0.766799, 0.659486, -283.861451, 484.921327)" fill="#fff" style=""/>
  <path d="M 619.97 183.689 C 618.292 183.144 616.45 182.672 614.485 182.276 C 615.126 180.366 615.653 178.519 616.023 176.787 C 617.366 170.473 616.685 166.325 614.052 164.792 C 613.392 164.406 612.634 164.212 611.797 164.212 C 610.56 164.212 609.154 164.653 607.634 165.476 C 607.071 165.028 606.375 164.781 605.657 164.779 C 603.867 164.779 602.417 166.242 602.417 168.047 C 602.417 168.45 602.498 168.832 602.631 169.19 C 601.384 170.334 600.108 171.657 598.822 173.135 C 593.989 167.579 589.272 164.213 585.847 164.213 C 585.011 164.213 584.253 164.408 583.593 164.792 C 580.96 166.326 580.278 170.476 581.622 176.787 C 581.992 178.52 582.519 180.367 583.159 182.277 C 581.194 182.672 579.352 183.144 577.675 183.689 C 571.584 185.672 568.364 188.342 568.364 191.41 C 568.364 193.516 569.882 195.434 572.803 197.072 C 572.741 197.323 572.699 197.582 572.699 197.854 C 572.699 199.658 574.151 201.122 575.941 201.122 C 577.147 201.122 578.187 200.449 578.744 199.461 C 580.125 199.869 581.603 200.229 583.159 200.542 C 582.518 202.451 581.992 204.298 581.622 206.031 C 580.279 212.346 580.961 216.493 583.594 218.028 C 584.253 218.411 585.011 218.606 585.847 218.606 C 589.272 218.606 593.989 215.241 598.822 209.683 C 603.657 215.241 608.374 218.608 611.797 218.608 C 612.634 218.608 613.391 218.411 614.05 218.029 C 616.056 216.86 616.927 214.173 616.636 210.172 C 617.8 209.639 618.546 208.477 618.545 207.198 C 618.551 205.488 617.227 204.065 615.519 203.95 C 615.211 202.803 614.868 201.666 614.485 200.544 C 616.451 200.148 618.293 199.676 619.97 199.13 C 626.061 197.148 629.28 194.478 629.28 191.41 C 629.28 188.342 626.061 185.672 619.97 183.689 Z M 603.835 170.752 C 604.356 171.109 604.982 171.32 605.657 171.32 C 607.448 171.32 608.899 169.855 608.899 168.05 C 608.899 167.721 608.836 167.41 608.747 167.111 C 609.923 166.494 610.958 166.176 611.798 166.176 C 612.297 166.176 612.716 166.278 613.082 166.492 C 614.834 167.514 615.223 171.208 614.123 176.377 C 613.752 178.121 613.214 179.987 612.555 181.919 C 609.977 181.49 607.376 181.19 604.767 181.025 C 603.319 178.822 601.761 176.694 600.098 174.649 C 601.27 173.28 602.517 171.979 603.835 170.752 Z M 606.219 195.72 C 605.409 197.133 604.563 198.526 603.68 199.895 C 600.444 200.073 597.202 200.073 593.965 199.895 C 593.083 198.526 592.238 197.133 591.428 195.72 C 590.62 194.3 589.85 192.86 589.118 191.4 C 590.582 188.491 592.201 185.661 593.965 182.924 C 597.202 182.747 600.444 182.747 603.68 182.924 C 605.444 185.661 607.063 188.491 608.529 191.4 C 607.798 192.86 607.027 194.301 606.219 195.72 Z M 609.594 193.596 C 610.43 195.373 611.193 197.183 611.884 199.02 C 609.963 199.334 608.029 199.57 606.09 199.731 C 606.703 198.747 607.308 197.737 607.902 196.7 C 608.486 195.676 609.049 194.64 609.594 193.596 Z M 602.335 201.92 C 601.229 203.542 600.056 205.12 598.822 206.65 C 597.589 205.12 596.418 203.542 595.31 201.92 C 596.469 201.965 597.639 201.989 598.822 201.989 C 600.006 201.989 601.177 201.965 602.335 201.92 Z M 591.557 199.73 C 589.616 199.57 587.683 199.334 585.762 199.019 C 586.411 197.289 587.173 195.473 588.052 193.595 C 588.597 194.64 589.162 195.675 589.746 196.699 C 590.338 197.737 590.944 198.746 591.555 199.73 Z M 588.058 189.214 C 587.223 187.44 586.457 185.633 585.763 183.799 C 587.683 183.485 589.616 183.248 591.555 183.09 C 590.943 184.073 590.338 185.083 589.743 186.12 C 589.162 187.141 588.6 188.173 588.058 189.214 Z M 595.31 180.9 C 596.418 179.276 597.589 177.699 598.822 176.17 C 600.056 177.699 601.229 179.276 602.335 180.9 C 601.177 180.855 600.006 180.83 598.822 180.83 C 597.639 180.83 596.469 180.855 595.31 180.9 Z M 607.902 186.12 C 607.317 185.099 606.713 184.087 606.09 183.088 C 608.029 183.247 609.962 183.484 611.883 183.798 C 611.188 185.632 610.424 187.439 609.589 189.213 C 609.049 188.183 608.492 187.152 607.902 186.12 Z M 583.523 176.377 C 582.422 171.208 582.813 167.513 584.566 166.491 C 584.931 166.277 585.351 166.174 585.847 166.174 C 588.413 166.174 592.748 169.09 597.547 174.647 C 595.98 176.567 594.412 178.704 592.88 181.023 C 590.16 181.202 587.544 181.504 585.092 181.918 C 584.434 179.987 583.894 178.12 583.523 176.377 Z M 579.147 197.524 C 578.981 195.874 577.618 194.582 575.94 194.582 C 575.135 194.582 574.407 194.891 573.84 195.382 C 571.566 194.124 570.308 192.743 570.308 191.41 C 570.308 188.708 575.454 185.805 583.813 184.151 C 584.733 186.621 585.776 189.043 586.938 191.41 C 585.776 193.775 584.733 196.198 583.813 198.669 C 582.241 198.362 580.683 197.98 579.147 197.524 Z M 585.847 216.645 C 585.351 216.645 584.931 216.542 584.564 216.328 C 582.247 214.978 582.328 209.03 585.089 200.9 C 587.543 201.314 590.159 201.618 592.881 201.797 C 594.329 203.998 595.886 206.127 597.548 208.173 C 592.747 213.729 588.412 216.645 585.847 216.645 Z M 613.624 204.413 C 612.655 205.006 612.064 206.061 612.064 207.196 C 612.064 208.787 613.191 210.111 614.683 210.403 C 614.891 213.483 614.343 215.591 613.079 216.328 C 612.713 216.542 612.295 216.645 611.797 216.645 C 609.232 216.645 604.898 213.729 600.097 208.173 C 601.759 206.127 603.318 203.998 604.767 201.797 C 607.376 201.629 609.977 201.329 612.556 200.9 C 612.97 202.122 613.328 203.298 613.623 204.414 Z M 613.831 198.668 C 612.912 196.198 611.868 193.775 610.706 191.41 C 611.868 189.043 612.912 186.621 613.831 184.151 C 622.19 185.805 627.337 188.708 627.337 191.41 C 627.337 194.112 622.19 197.015 613.831 198.669 Z" style="filter: none; fill-rule: nonzero; paint-order: fill; fill: rgb(102, 21, 191); stroke: rgb(102, 21, 191);"/>
  <path d="M 201.618 156.563 C 200.342 156.147 198.942 155.79 197.448 155.487 C 197.935 154.035 198.336 152.63 198.617 151.312 C 199.638 146.509 199.12 143.354 197.119 142.188 C 196.617 141.895 196.04 141.746 195.404 141.746 C 194.463 141.746 193.394 142.081 192.239 142.707 C 191.811 142.367 191.281 142.18 190.735 142.178 C 189.375 142.178 188.272 143.29 188.272 144.664 C 188.272 144.97 188.334 145.261 188.435 145.533 C 187.487 146.404 186.517 147.411 185.538 148.534 C 181.863 144.308 178.276 141.747 175.674 141.747 C 175.038 141.747 174.461 141.895 173.959 142.188 C 171.958 143.354 171.439 146.511 172.461 151.312 C 172.742 152.631 173.143 154.036 173.63 155.488 C 172.136 155.79 170.735 156.147 169.461 156.563 C 164.829 158.071 162.381 160.102 162.381 162.436 C 162.381 164.039 163.536 165.498 165.756 166.743 C 165.709 166.934 165.677 167.132 165.677 167.339 C 165.677 168.711 166.78 169.825 168.142 169.825 C 169.059 169.825 169.85 169.312 170.274 168.561 C 171.323 168.872 172.446 169.145 173.63 169.384 C 173.143 170.836 172.742 172.241 172.461 173.559 C 171.44 178.363 171.959 181.518 173.961 182.685 C 174.462 182.977 175.038 183.125 175.674 183.125 C 178.277 183.125 181.863 180.565 185.539 176.338 C 189.215 180.565 192.801 183.126 195.404 183.126 C 196.04 183.126 196.616 182.977 197.117 182.686 C 198.642 181.797 199.304 179.752 199.083 176.709 C 199.968 176.304 200.536 175.419 200.535 174.447 C 200.539 173.145 199.532 172.065 198.234 171.975 C 198 171.104 197.738 170.24 197.448 169.384 C 198.942 169.083 200.343 168.725 201.618 168.31 C 206.249 166.801 208.697 164.77 208.697 162.436 C 208.697 160.102 206.249 158.071 201.618 156.563 Z M 189.35 146.721 C 189.746 146.993 190.222 147.154 190.736 147.154 C 192.097 147.154 193.2 146.04 193.2 144.665 C 193.2 144.416 193.152 144.179 193.085 143.952 C 193.979 143.482 194.766 143.24 195.405 143.24 C 195.784 143.24 196.102 143.319 196.381 143.48 C 197.713 144.258 198.009 147.069 197.173 151.001 C 196.89 152.327 196.482 153.747 195.98 155.217 C 194.019 154.89 192.043 154.663 190.059 154.536 C 188.958 152.861 187.773 151.242 186.509 149.686 C 187.4 148.644 188.349 147.655 189.35 146.721 Z M 191.163 165.715 C 190.547 166.79 189.903 167.85 189.232 168.892 C 186.772 169.026 184.306 169.026 181.846 168.892 C 181.175 167.85 180.532 166.791 179.917 165.715 C 179.302 164.636 178.716 163.539 178.16 162.429 C 179.274 160.215 180.504 158.063 181.846 155.98 C 184.306 155.846 186.772 155.846 189.232 155.98 C 190.574 158.064 191.804 160.216 192.919 162.429 C 192.363 163.539 191.777 164.636 191.163 165.715 Z M 193.729 164.099 C 194.363 165.451 194.944 166.828 195.47 168.226 C 194.009 168.464 192.54 168.645 191.065 168.766 C 191.531 168.018 191.991 167.25 192.443 166.461 C 192.886 165.681 193.315 164.894 193.729 164.099 Z M 188.21 170.431 C 187.368 171.665 186.477 172.866 185.539 174.029 C 184.602 172.866 183.71 171.666 182.869 170.431 C 183.749 170.466 184.639 170.484 185.539 170.484 C 186.439 170.484 187.33 170.466 188.21 170.431 Z M 180.015 168.766 C 178.54 168.644 177.069 168.464 175.608 168.225 C 176.102 166.908 176.682 165.528 177.351 164.099 C 177.764 164.894 178.194 165.681 178.637 166.46 C 179.088 167.249 179.549 168.017 180.014 168.766 Z M 177.354 160.765 C 176.719 159.416 176.138 158.042 175.61 156.647 C 177.07 156.408 178.54 156.228 180.014 156.107 C 179.548 156.855 179.088 157.623 178.636 158.412 C 178.194 159.189 177.768 159.973 177.354 160.765 Z M 182.869 154.441 C 183.711 153.207 184.602 152.007 185.539 150.843 C 186.477 152.007 187.368 153.206 188.21 154.441 C 187.33 154.407 186.438 154.388 185.538 154.388 C 184.639 154.388 183.749 154.407 182.869 154.441 Z M 192.443 158.412 C 191.998 157.635 191.539 156.866 191.065 156.106 C 192.54 156.228 194.009 156.408 195.469 156.646 C 194.941 158.041 194.359 159.416 193.725 160.765 C 193.315 159.981 192.892 159.197 192.443 158.412 Z M 173.907 151 C 173.07 147.068 173.367 144.258 174.699 143.48 C 174.976 143.318 175.297 143.239 175.674 143.239 C 177.625 143.239 180.92 145.457 184.569 149.684 C 183.379 151.145 182.185 152.771 181.021 154.535 C 178.952 154.671 176.964 154.901 175.099 155.216 C 174.599 153.747 174.189 152.326 173.907 151 Z M 170.58 167.087 C 170.453 165.833 169.417 164.85 168.141 164.85 C 167.529 164.85 166.975 165.084 166.544 165.458 C 164.816 164.501 163.859 163.45 163.859 162.436 C 163.859 160.382 167.771 158.172 174.127 156.915 C 174.826 158.794 175.619 160.636 176.503 162.436 C 175.619 164.236 174.826 166.079 174.127 167.958 C 172.931 167.725 171.747 167.434 170.58 167.087 Z M 175.674 181.633 C 175.297 181.633 174.976 181.554 174.698 181.392 C 172.937 180.365 172.998 175.84 175.097 169.655 C 176.963 169.971 178.952 170.201 181.022 170.338 C 182.122 172.013 183.307 173.632 184.57 175.188 C 180.92 179.415 177.624 181.633 175.674 181.633 Z M 196.793 172.328 C 196.056 172.779 195.607 173.582 195.607 174.446 C 195.607 175.656 196.464 176.663 197.598 176.885 C 197.756 179.228 197.339 180.832 196.378 181.392 C 196.1 181.554 195.783 181.633 195.404 181.633 C 193.454 181.633 190.158 179.415 186.508 175.188 C 187.772 173.632 188.957 172.013 190.058 170.338 C 192.043 170.211 194.02 169.983 195.982 169.655 C 196.296 170.585 196.568 171.479 196.792 172.329 Z M 196.95 167.957 C 196.251 166.078 195.458 164.236 194.575 162.436 C 195.458 160.636 196.251 158.794 196.95 156.915 C 203.306 158.172 207.219 160.382 207.219 162.436 C 207.219 164.491 203.306 166.7 196.95 167.958 Z" style="fill: rgb(102, 21, 191);"/>
  <path d="M 188.988 162.436 C 188.989 163.358 188.625 164.242 187.978 164.9 C 187.497 165.385 186.882 165.716 186.212 165.852 C 185.542 165.987 184.848 165.918 184.218 165.654 C 183.799 165.479 183.419 165.222 183.099 164.9 C 182.779 164.575 182.524 164.192 182.352 163.77 C 182.09 163.133 182.022 162.432 182.156 161.756 C 182.289 161.082 182.617 160.462 183.1 159.973 C 183.581 159.488 184.195 159.156 184.866 159.02 C 185.535 158.885 186.23 158.954 186.859 159.218 C 187.278 159.394 187.659 159.65 187.978 159.973 C 188.299 160.297 188.553 160.681 188.726 161.103 C 188.9 161.526 188.989 161.979 188.988 162.436 Z" style="fill: rgb(102, 21, 191);"/>
  <path d="M 230.627 177.771 C 225.02 177.771 221.049 175.416 221.049 172.233 C 221.008 170.704 221.908 169.216 223.792 168.844 C 225.51 170.622 227.926 171.489 230.463 171.489 C 232.837 171.489 234.025 170.663 234.025 169.299 C 234.025 165.208 223.218 166.572 223.177 157.231 C 223.177 151.817 226.82 147.561 233.983 147.561 C 239.632 147.561 243.029 150.205 243.029 153.842 C 243.029 156.405 241.433 158.099 238.895 158.099 C 238.323 158.099 237.79 158.016 237.135 157.768 L 237.094 157.727 C 237.258 157.067 237.34 156.611 237.34 156.198 C 237.34 154.71 236.152 153.678 233.697 153.678 C 231.119 153.678 230.095 154.834 230.095 156.446 C 230.095 161.819 241.801 159.711 241.843 168.844 C 241.843 174.877 236.767 177.77 230.627 177.77 Z M 251.864 177.771 C 248.549 177.771 247.198 176.531 246.994 175.456 L 242.941 156.611 C 244.333 155.537 245.929 154.586 247.853 154.586 C 249.613 154.586 250.473 155.413 250.677 156.777 L 252.888 171.613 L 253.093 171.613 L 258.29 155.289 C 259.437 154.462 260.542 154.132 261.852 154.132 C 264.062 154.132 265.617 155.082 265.454 158.016 L 257.267 176.572 C 255.577 177.365 253.732 177.774 251.864 177.771 Z M 268.435 169.877 C 270.728 169.877 271.955 171.282 271.955 173.555 C 271.955 176.201 270.359 177.977 267.699 177.977 C 265.366 177.977 264.056 176.572 264.056 174.34 C 264.056 171.779 265.775 169.877 268.435 169.877 Z M 291.801 146.733 C 294.339 146.733 295.854 148.305 295.649 150.454 L 293.603 176.779 C 293.275 177.151 291.924 177.564 290.779 177.564 C 288.199 177.564 286.767 176.655 286.644 174.258 L 286.399 174.258 C 285.538 176.365 283.124 177.647 280.341 177.647 C 276.329 177.647 272.973 175.085 272.973 167.605 C 272.973 159.752 276.657 154.173 282.592 154.173 C 286.03 154.173 287.217 155.991 287.626 157.48 L 287.789 157.48 L 288.527 147.52 C 288.854 147.272 290.327 146.734 291.801 146.734 Z M 283.206 172.068 C 285.007 172.068 286.603 170.663 287.054 167.439 L 287.34 163.803 C 287.258 160.662 286.276 159.795 284.679 159.795 C 282.182 159.795 280.341 162.108 280.341 167.15 C 280.341 170.498 281.446 172.068 283.206 172.068 Z M 305.875 177.771 C 300.187 177.771 296.257 174.176 296.257 167.357 C 296.257 159.67 300.841 154.215 307.718 154.215 C 313.735 154.215 315.781 157.686 315.781 161.034 C 315.781 166.448 310.747 168.721 305.344 168.721 C 304.607 168.721 304.115 168.638 303.707 168.638 C 303.666 170.002 304.238 172.151 307.267 172.151 C 309.109 172.151 310.46 171.489 312.22 169.671 C 313.285 170.002 314.348 170.911 314.348 172.44 C 314.348 175.663 310.214 177.771 305.875 177.771 Z M 307.267 159.959 C 305.507 159.959 303.952 161.53 303.87 164.712 C 304.361 164.712 304.648 164.794 305.139 164.794 C 307.882 164.794 309.15 163.43 309.15 161.902 C 309.15 160.786 308.577 159.959 307.267 159.959 Z M 324.78 177.771 C 321.465 177.771 320.114 176.532 319.909 175.457 L 315.857 156.612 C 317.248 155.538 318.845 154.587 320.768 154.587 C 322.528 154.587 323.388 155.413 323.593 156.777 L 325.803 171.614 L 326.008 171.614 L 331.206 155.29 C 332.352 154.463 333.458 154.132 334.767 154.132 C 336.978 154.132 338.534 155.083 338.369 158.017 L 330.183 176.573 C 328.493 177.366 326.647 177.775 324.78 177.771 Z" style="fill: rgb(102, 21, 191);"/>
</svg>